<svg width="182" height="23" viewBox="0 0 182 23" fill="none" xmlns="http://www.w3.org/2000/svg">
<path d="M14.3613 11.4219L14.3223 12.6914C14.3223 13.401 14.4655 13.8991 14.752 14.1855L14.5469 14.3809C14.2995 14.127 13.974 14 13.5703 14H10.7285C10.735 14.0911 10.7383 14.2116 10.7383 14.3613C10.7383 14.7259 10.6471 14.9082 10.4648 14.9082C10.2826 14.9082 10.1914 14.7031 10.1914 14.293C10.1914 14.1693 10.1947 14.0716 10.2012 14H1.46094C1.30469 14 1.16797 14.2799 1.05078 14.8398C0.940104 15.4062 0.884766 15.8587 0.884766 16.1973C0.884766 16.5358 0.962891 17.1413 1.11914 18.0137C1.27539 18.8926 1.35352 19.5762 1.35352 20.0645C1.35352 20.5592 1.16146 20.8066 0.777344 20.8066C0.360677 20.8066 0.152344 20.5527 0.152344 20.0449C0.152344 19.5371 0.240234 18.8307 0.416016 17.9258C0.591797 17.0273 0.679688 16.3503 0.679688 15.8945L0.669922 1.7832C0.669922 1.38607 0.539714 1.06055 0.279297 0.806641L0.484375 0.601562C0.751302 0.861979 1.07682 0.992188 1.46094 0.992188H4.95703C5.35417 0.992188 5.67969 0.861979 5.93359 0.601562L6.13867 0.806641C5.87826 1.06055 5.74805 1.38607 5.74805 1.7832V9.83984C5.74805 10.2305 5.62109 10.5527 5.36719 10.8066L5.57227 11.0117C5.9043 10.6797 6.63021 10.5137 7.75 10.5137L12.3789 10.748C13.4922 10.748 14.2148 10.582 14.5469 10.25L14.752 10.4453C14.4915 10.6992 14.3613 11.0247 14.3613 11.4219ZM10.7969 18.3359C10.7969 18.6029 10.6862 18.7363 10.4648 18.7363C10.2435 18.7363 10.1328 18.5768 10.1328 18.2578C10.1328 17.9779 10.1849 17.6328 10.2891 17.2227C10.3997 16.819 10.4583 16.6009 10.4648 16.5684C10.4779 16.6335 10.5104 16.7669 10.5625 16.9688C10.6146 17.1706 10.6536 17.3268 10.6797 17.4375C10.7578 17.7695 10.7969 18.069 10.7969 18.3359ZM16.1191 14.625L16.1484 16.1777C16.1484 16.4902 16.0996 16.7246 16.002 16.8809C15.9043 17.0436 15.7871 17.125 15.6504 17.125C15.377 17.125 15.2402 16.8613 15.2402 16.334C15.2402 15.8066 15.3053 15.2207 15.4355 14.5762C15.5658 13.9382 15.6797 13.4987 15.7773 13.2578L20.4648 1.72461C20.5299 1.55534 20.5625 1.38932 20.5625 1.22656C20.5625 1.0638 20.5072 0.904297 20.3965 0.748047L20.6699 0.572266C20.8587 0.852214 21.1517 0.992188 21.5488 0.992188H26.041C26.4316 0.992188 26.7214 0.852214 26.9102 0.572266L27.1934 0.748047C27.0827 0.904297 27.0273 1.05404 27.0273 1.19727C27.0273 1.34049 27.0664 1.51302 27.1445 1.71484L31.9688 13.2676C32.1185 13.6322 32.3496 13.9186 32.6621 14.127L32.5449 14.3125C32.2259 14.1042 31.8711 14 31.4805 14H29.5664C29.5794 14.1432 29.5859 14.2441 29.5859 14.3027C29.5859 14.5176 29.498 14.625 29.3223 14.625C29.2441 14.625 29.1725 14.5924 29.1074 14.5273C29.0488 14.4688 29.0195 14.3809 29.0195 14.2637C29.0195 14.153 29.026 14.0651 29.0391 14H27.8574C27.571 14 27.3854 14.1562 27.3008 14.4688C27.1966 14.8529 27.1445 15.2923 27.1445 15.7871C27.1445 16.2884 27.1771 16.7441 27.2422 17.1543C27.3073 17.5645 27.3398 17.8444 27.3398 17.9941C27.3398 18.1504 27.3008 18.2741 27.2227 18.3652C27.151 18.4629 27.0599 18.5117 26.9492 18.5117C26.8385 18.5117 26.7441 18.4661 26.666 18.375C26.5879 18.2839 26.5488 18.1569 26.5488 17.9941C26.5488 17.8314 26.5879 17.5156 26.666 17.0469C26.7507 16.5781 26.793 16.2266 26.793 15.9922V13.248C26.7279 13.0723 26.6953 12.9095 26.6953 12.7598C26.6953 12.61 26.7539 12.4505 26.8711 12.2812L26.6172 12.0957C26.4219 12.3757 26.1289 12.5156 25.7383 12.5156H21.7246C21.334 12.5156 21.041 12.3789 20.8457 12.1055L20.5918 12.2812C20.7155 12.457 20.7773 12.6198 20.7773 12.7695C20.7773 12.9193 20.7546 13.0788 20.709 13.248V13.2578C20.6504 13.4792 20.6211 13.6484 20.6211 13.7656C20.6211 13.8828 20.6862 14.0358 20.8164 14.2246L20.5625 14.4102C20.3672 14.1367 20.0742 14 19.6836 14H16.1484C16.1289 14.1237 16.1191 14.332 16.1191 14.625ZM22.7305 9.81055H24.5957C24.9863 9.81055 25.3379 9.91471 25.6504 10.123L25.7773 9.9375C25.4714 9.72917 25.25 9.43945 25.1133 9.06836L23.873 5.89453C23.7298 5.52344 23.6549 5.14583 23.6484 4.76172H23.5215C23.5085 5.19141 23.4434 5.56901 23.3262 5.89453L22.2031 9.05859C22.0664 9.4362 21.8483 9.72917 21.5488 9.9375L21.6758 10.1328C21.9818 9.91797 22.3333 9.81055 22.7305 9.81055ZM29.0684 17.2324C29.0684 16.7832 29.153 16.2201 29.3223 15.543C29.5111 16.3242 29.6055 16.832 29.6055 17.0664C29.6055 17.4115 29.5143 17.584 29.332 17.584C29.1562 17.584 29.0684 17.4668 29.0684 17.2324ZM39.332 15.2695L39.5273 16.8125C39.5273 16.9688 39.498 17.1315 39.4395 17.3008C39.3874 17.4701 39.2995 17.5547 39.1758 17.5547C38.9805 17.5547 38.8828 17.3138 38.8828 16.832C38.8828 16.6302 38.9284 16.3307 39.0195 15.9336C39.1107 15.543 39.1562 15.2435 39.1562 15.0352C39.1562 14.6315 38.9479 14.4036 38.5312 14.3516C36.8776 14.1042 35.6602 13.6875 34.8789 13.1016C34.1367 12.5547 33.6745 11.9492 33.4922 11.2852C33.3099 10.6146 33.2155 10.0807 33.209 9.68359C33.1895 8.96094 33.056 8.48893 32.8086 8.26758L32.8965 8.16992C33.0853 8.3457 33.2546 8.43359 33.4043 8.43359C33.9772 8.43359 34.6901 8.35872 35.543 8.20898C36.4023 8.05273 36.9915 7.95833 37.3105 7.92578C37.6361 7.88672 37.916 7.7207 38.1504 7.42773L38.3652 7.59375C38.1569 7.85417 38.0527 8.15039 38.0527 8.48242C38.0527 8.81445 38.0853 9.13021 38.1504 9.42969C38.222 9.72266 38.3294 9.99609 38.4727 10.25C38.7982 10.8164 39.3125 11.0996 40.0156 11.0996C40.7253 11.0996 41.2656 10.8945 41.6367 10.4844C42.0078 10.0742 42.1934 9.51432 42.1934 8.80469L42.2031 1.7832C42.2031 1.37305 42.0794 1.04753 41.832 0.806641L42.0273 0.601562C42.2878 0.861979 42.6133 0.992188 43.0039 0.992188H46.4023C46.7995 0.992188 47.125 0.861979 47.3789 0.601562L47.5742 0.806641C47.3203 1.05404 47.1934 1.37956 47.1934 1.7832V9.38086C47.1934 11.5098 46.2201 12.9779 44.2734 13.7852H44.2637V15.9043C44.2637 16.1322 44.3158 16.4674 44.4199 16.9102C44.5306 17.3529 44.5859 17.6849 44.5859 17.9062C44.5859 18.2578 44.446 18.4336 44.166 18.4336C43.9251 18.4336 43.8047 18.2969 43.8047 18.0234C43.8047 17.7565 43.847 17.4212 43.9316 17.0176C44.0163 16.6139 44.0586 16.2689 44.0586 15.9824C44.0586 15.696 43.9219 15.4062 43.6484 15.1133C43.1211 14.5599 42.4375 14.2832 41.5977 14.2832C41.3698 14.2832 41.194 14.3646 41.0703 14.5273C40.9531 14.6966 40.8945 14.918 40.8945 15.1914C40.8945 15.4648 40.9531 15.8945 41.0703 16.4805C41.1875 17.0729 41.2461 17.4831 41.2461 17.7109C41.2461 18.2122 41.1159 18.4629 40.8555 18.4629C40.7122 18.4629 40.6081 18.3848 40.543 18.2285C40.4779 18.0788 40.4453 17.9225 40.4453 17.7598L40.6797 14.9277C40.6797 14.7129 40.582 14.5371 40.3867 14.4004C40.1914 14.2702 39.9831 14.2051 39.7617 14.2051C39.4753 14.2051 39.332 14.5599 39.332 15.2695ZM44.4785 21.5879C44.4785 21.8288 44.3971 21.9492 44.2344 21.9492C44.0716 21.9492 43.9902 21.832 43.9902 21.5977C43.9902 21.0508 44.0716 20.429 44.2344 19.7324C44.3971 20.416 44.4785 21.0345 44.4785 21.5879ZM65.6211 2.96484L65.709 7.95508C65.709 9.69336 65.4941 10.9661 65.0645 11.7734C64.6608 12.5417 64.0846 13.1178 63.3359 13.502C62.4831 13.9447 61.3503 14.2311 59.9375 14.3613V16.1875L60.0352 17.1934C60.0352 17.4147 59.9733 17.5254 59.8496 17.5254C59.7259 17.5254 59.6641 17.3105 59.6641 16.8809L59.7227 15.2891C59.7227 14.5859 59.5046 14.2344 59.0684 14.2344C58.7298 14.2344 58.5605 14.5111 58.5605 15.0645C58.5605 15.0645 58.5768 15.3477 58.6094 15.9141C58.6094 16.1094 58.6484 16.3926 58.7266 16.7637C58.8112 17.1413 58.8535 17.4082 58.8535 17.5645C58.8535 17.7207 58.821 17.8509 58.7559 17.9551C58.6908 18.0592 58.5964 18.1113 58.4727 18.1113C58.349 18.1113 58.2546 18.056 58.1895 17.9453C58.1309 17.8411 58.1016 17.7142 58.1016 17.5645C58.1016 17.4147 58.1439 17.1673 58.2285 16.8223C58.3197 16.4837 58.3652 16.2656 58.3652 16.168C58.3652 16.0703 58.3652 15.9694 58.3652 15.8652C58.3652 15.7676 58.362 15.6667 58.3555 15.5625C58.349 15.4583 58.3327 15.3281 58.3066 15.1719C58.2546 14.8464 58.0983 14.6836 57.8379 14.6836C57.3561 14.6836 57.1152 15.1589 57.1152 16.1094V16.5586C57.1152 16.7995 57.1738 17.151 57.291 17.6133C57.4082 18.0755 57.4668 18.4076 57.4668 18.6094C57.4668 19.1107 57.304 19.3613 56.9785 19.3613C56.8158 19.3613 56.6855 19.293 56.5879 19.1562C56.4967 19.0195 56.4512 18.8438 56.4512 18.6289C56.4512 18.4141 56.5033 18.0495 56.6074 17.5352C56.7181 17.0208 56.7734 16.6302 56.7734 16.3633V14.4199C54.9245 14.3353 53.5378 14.0651 52.6133 13.6094C50.9987 12.8281 50.1686 11.3438 50.123 9.15625C50.11 8.55078 50.1035 7.64909 50.1035 6.45117L50.123 1.93945C50.123 1.55534 49.9961 1.23307 49.7422 0.972656L49.9473 0.777344C50.1882 1.02474 50.5104 1.14844 50.9141 1.14844H54.3711C54.7682 1.14844 55.0905 1.02474 55.3379 0.777344L55.543 0.972656C55.2956 1.22656 55.1719 1.54883 55.1719 1.93945L55.1914 6.95898C55.1914 7.92904 55.2174 8.54427 55.2695 8.80469C55.3216 9.0651 55.377 9.30599 55.4355 9.52734C55.5007 9.74219 55.5755 9.91471 55.6602 10.0449C55.7513 10.1751 55.8652 10.3151 56.002 10.4648C56.1387 10.6081 56.2949 10.7188 56.4707 10.7969C56.8809 10.9792 57.2812 11.0703 57.6719 11.0703C58.069 11.0703 58.375 11.054 58.5898 11.0215C58.8112 10.9824 59.0033 10.9238 59.166 10.8457C59.3353 10.7611 59.485 10.6732 59.6152 10.582C59.752 10.4844 59.8659 10.3639 59.957 10.2207C60.0547 10.071 60.1393 9.93099 60.2109 9.80078C60.2826 9.66406 60.3379 9.49479 60.377 9.29297C60.4225 9.09115 60.4583 8.91536 60.4844 8.76562C60.5104 8.60938 60.5299 8.41406 60.543 8.17969C60.5625 7.82161 60.5723 7.41471 60.5723 6.95898L60.5918 1.93945C60.5918 1.54232 60.4714 1.22005 60.2305 0.972656L60.416 0.777344C60.6634 1.02474 60.9889 1.14844 61.3926 1.14844H64.8496C65.2598 1.14844 65.5853 1.02474 65.8262 0.777344L66.0215 0.972656C65.7546 1.24609 65.6211 1.91016 65.6211 2.96484ZM60.1719 19.4199C60.1719 19.7259 60.0645 19.8789 59.8496 19.8789C59.6348 19.8789 59.5273 19.7194 59.5273 19.4004C59.5273 19.0879 59.5729 18.821 59.6641 18.5996C59.7617 18.3848 59.8203 18.2773 59.8398 18.2773C59.8594 18.2773 59.8952 18.3359 59.9473 18.4531C60.097 18.7917 60.1719 19.1139 60.1719 19.4199ZM70.123 14L70.3379 15.7871C70.3379 16.1842 70.1979 16.3828 69.918 16.3828C69.6445 16.3828 69.5078 16.1875 69.5078 15.7969C69.5078 15.6146 69.5469 15.3444 69.625 14.9863C69.7031 14.6283 69.7422 14.3125 69.7422 14.0391C69.7422 13.7656 69.6641 13.6289 69.5078 13.6289C69.3841 13.6289 69.293 13.7266 69.2344 13.9219C69.1758 14.1107 69.1465 14.3418 69.1465 14.6152C69.1465 14.8952 69.1921 15.4258 69.2832 16.207C69.3809 16.9948 69.4297 17.5807 69.4297 17.9648C69.4297 18.3555 69.2832 18.5508 68.9902 18.5508C68.6973 18.5508 68.5508 18.362 68.5508 17.9844C68.5508 17.6133 68.6029 17.0957 68.707 16.4316C68.8112 15.7741 68.8633 15.2793 68.8633 14.9473L68.873 1.7832C68.873 1.37956 68.7461 1.05404 68.4922 0.806641L68.6875 0.601562C68.9609 0.861979 69.2865 0.992188 69.6641 0.992188H77.9258C78.0234 0.992188 78.196 0.988932 78.4434 0.982422C78.6908 0.975911 78.9837 0.979167 79.3223 0.992188C79.6608 1.00521 80.0059 1.01823 80.3574 1.03125C80.7155 1.03776 81.0703 1.07031 81.4219 1.12891C81.7799 1.1875 82.1217 1.25911 82.4473 1.34375C82.7728 1.42188 83.0755 1.53906 83.3555 1.69531C83.6354 1.85156 83.8796 2.02734 84.0879 2.22266C84.5371 2.65234 84.7617 3.19922 84.7617 3.86328C84.7617 4.52734 84.6087 5.10677 84.3027 5.60156C83.9967 6.08984 83.5671 6.35677 83.0137 6.40234L83.0332 6.59766C83.4173 6.5651 83.7754 6.65625 84.1074 6.87109C84.4395 7.07943 84.7096 7.35938 84.918 7.71094C85.3542 8.45312 85.5723 9.14323 85.5723 9.78125C85.5723 10.4193 85.4779 10.9564 85.2891 11.3926C85.1068 11.8288 84.8496 12.1901 84.5176 12.4766C84.1855 12.763 83.8177 13.0104 83.4141 13.2188C83.0104 13.4271 82.5612 13.5833 82.0664 13.6875C81.1224 13.8958 80.1849 14 79.2539 14H70.123ZM73.5117 8.93164C73.7656 9.18555 73.8926 9.51432 73.8926 9.91797C73.8926 10.3216 73.7656 10.6504 73.5117 10.9043L73.707 11.1094C73.9674 10.849 74.293 10.7188 74.6836 10.7188H78.5215C78.5671 10.7188 78.6647 10.722 78.8145 10.7285C78.9642 10.7285 79.0684 10.7285 79.127 10.7285C79.1921 10.722 79.2865 10.7122 79.4102 10.6992C79.5404 10.6862 79.6348 10.6634 79.6934 10.6309C79.7585 10.5918 79.8268 10.543 79.8984 10.4844C80.0352 10.3867 80.1035 10.1979 80.1035 9.91797C80.1035 9.63802 79.9896 9.42969 79.7617 9.29297C79.5339 9.15625 79.2734 9.08789 78.9805 9.08789L74.6836 9.11719C74.2865 9.11719 73.9609 8.99023 73.707 8.73633L73.5117 8.93164ZM75.4355 5.75781L77.7207 5.85547C78.502 5.85547 79 5.71549 79.2148 5.43555C79.319 5.29883 79.3711 5.14258 79.3711 4.9668C79.3711 4.78451 79.2995 4.64128 79.1562 4.53711C78.9154 4.36784 78.5996 4.2832 78.209 4.2832L74.6836 4.29297C74.3255 4.29297 74.0163 4.16927 73.7559 3.92188L73.5703 4.11719C73.8242 4.37109 73.9512 4.68034 73.9512 5.04492C73.9512 5.40951 73.8242 5.72526 73.5703 5.99219L73.7559 6.17773C74.0423 5.89779 74.6022 5.75781 75.4355 5.75781ZM70.4746 20.5527C70.5462 20.8197 70.5983 21.0443 70.6309 21.2266C70.6634 21.4154 70.6797 21.6302 70.6797 21.8711C70.6797 22.1185 70.569 22.2422 70.3477 22.2422C70.1263 22.2422 70.0156 22.0827 70.0156 21.7637C70.0156 21.4382 70.0645 21.0866 70.1621 20.709C70.2663 20.3314 70.3281 20.1003 70.3477 20.0156C70.3672 20.1133 70.4095 20.2923 70.4746 20.5527ZM96.3535 15.582L96.4219 14.6445C96.4219 14.4818 96.3438 14.3548 96.1875 14.2637C96.0312 14.179 95.862 14.1367 95.6797 14.1367C95.4974 14.1367 95.3346 14.1855 95.1914 14.2832C95.0482 14.3809 94.9766 14.5208 94.9766 14.7031V16.9492C94.9766 17.2747 95.0449 17.7533 95.1816 18.3848C95.3184 19.0163 95.3867 19.4655 95.3867 19.7324C95.3867 20.0059 95.3281 20.2305 95.2109 20.4062C95.0938 20.582 94.931 20.6699 94.7227 20.6699C94.5208 20.6699 94.3678 20.5788 94.2637 20.3965C94.1595 20.2142 94.1074 19.9766 94.1074 19.6836C94.1074 19.3906 94.1823 18.8828 94.332 18.1602C94.4818 17.4375 94.5566 16.8776 94.5566 16.4805C94.5566 14.8724 94.2572 14.0684 93.6582 14.0684C92.8509 14.0684 92.4473 14.0358 92.4473 13.9707V13.9902C92.4473 14.4395 92.5449 15.097 92.7402 15.9629C92.9421 16.8353 93.043 17.4603 93.043 17.8379C93.043 18.2155 92.9746 18.5247 92.8379 18.7656C92.7012 19.013 92.4896 19.1367 92.2031 19.1367C91.9232 19.1367 91.7018 19.0195 91.5391 18.7852C91.3828 18.5508 91.3047 18.2448 91.3047 17.8672C91.3047 17.4961 91.3991 16.8548 91.5879 15.9434C91.7767 15.0384 91.8711 14.3516 91.8711 13.8828C90.3281 13.3945 89.166 12.597 88.3848 11.4902C87.61 10.3835 87.2227 9.01628 87.2227 7.38867C87.2227 4.01628 88.9219 1.88737 92.3203 1.00195C93.4206 0.715495 94.5566 0.572266 95.7285 0.572266C96.9069 0.572266 97.9062 0.63737 98.7266 0.767578C99.5534 0.897786 100.351 1.12891 101.119 1.46094C101.894 1.78646 102.551 2.20312 103.092 2.71094C103.639 3.21224 104.075 3.86328 104.4 4.66406C104.726 5.45833 104.889 6.36654 104.889 7.38867C104.889 9.47201 104.303 11.0866 103.131 12.2324C101.959 13.3717 100.312 14.0716 98.1895 14.332C98.1634 14.3776 98.1504 14.4492 98.1504 14.5469L98.1992 15.084C98.1992 15.416 98.1081 15.582 97.9258 15.582C97.7435 15.582 97.6523 15.4225 97.6523 15.1035L97.6816 14.5566C97.6816 14.3613 97.5417 14.2637 97.2617 14.2637C97.2357 14.3223 97.2227 14.4329 97.2227 14.5957L97.2715 15.543C97.2715 15.7383 97.2357 15.9271 97.1641 16.1094C97.0924 16.2917 96.972 16.3828 96.8027 16.3828C96.5033 16.3828 96.3535 16.1159 96.3535 15.582ZM92.6621 7.39844C92.6621 9.78125 93.7949 10.9727 96.0605 10.9727C98.3262 10.9727 99.459 9.78125 99.459 7.39844C99.459 6.30469 99.166 5.4681 98.5801 4.88867C97.9941 4.30924 97.1543 4.01953 96.0605 4.01953C94.9668 4.01953 94.127 4.30924 93.541 4.88867C92.9551 5.4681 92.6621 6.30469 92.6621 7.39844ZM123.141 17.2031L123.355 15.1816C123.355 14.3613 123.02 13.7363 122.35 13.3066C121.686 12.8704 120.986 12.6784 120.25 12.7305C119.514 12.776 119 13.0234 118.707 13.4727C118.557 13.6875 118.482 13.9414 118.482 14.2344L118.434 16.8516C118.434 17.2096 118.489 17.7402 118.6 18.4434C118.71 19.153 118.766 19.6868 118.766 20.0449C118.766 20.6764 118.587 20.9922 118.229 20.9922C117.87 20.9922 117.691 20.6862 117.691 20.0742C117.691 19.6706 117.75 19.0911 117.867 18.3359C117.984 17.5807 118.049 17.0078 118.062 16.6172C118.082 16.2266 118.092 15.3932 118.092 14.1172C118.092 13.7786 117.988 13.388 117.779 12.9453C117.571 12.5026 117.242 11.8939 116.793 11.1191C116.344 10.3444 115.976 9.66081 115.689 9.06836L115.396 8.90234C115.24 9.1888 114.964 9.33203 114.566 9.33203L113.746 9.36133C113.186 9.36133 112.766 9.22461 112.486 8.95117L112.281 9.14648C112.301 9.38737 112.311 9.90169 112.311 10.6895L112.301 13.082C112.301 13.7982 112.314 14.3255 112.34 14.6641L112.525 16.0996C112.525 16.3665 112.434 16.5 112.252 16.5C112.07 16.5 111.979 16.3763 111.979 16.1289L112.135 14.918C112.135 14.625 112.047 14.3906 111.871 14.2148C111.702 14.0456 111.477 13.9609 111.197 13.9609C110.924 13.9609 110.68 14.0814 110.465 14.3223C110.257 14.5697 110.152 14.8887 110.152 15.2793C110.152 15.6699 110.224 16.1973 110.367 16.8613C110.51 17.5319 110.582 18.0137 110.582 18.3066C110.582 18.9186 110.364 19.2246 109.928 19.2246C109.492 19.2246 109.273 18.9251 109.273 18.3262C109.273 18.0462 109.335 17.5579 109.459 16.8613C109.589 16.1647 109.654 15.6113 109.654 15.2012C109.654 14.791 109.56 14.4525 109.371 14.1855C109.182 13.9251 108.967 13.7949 108.727 13.7949C108.486 13.7949 108.281 13.8763 108.111 14.0391C107.942 14.2083 107.857 14.4167 107.857 14.6641L108.121 16.9785C108.121 17.3757 107.975 17.5742 107.682 17.5742C107.389 17.5742 107.242 17.3724 107.242 16.9688C107.242 16.7344 107.304 16.3242 107.428 15.7383C107.551 15.1589 107.61 14.7064 107.604 14.3809C107.597 14.0553 107.594 9.8431 107.594 1.74414C107.594 1.34049 107.47 1.01823 107.223 0.777344L107.418 0.582031C107.672 0.829427 107.994 0.953125 108.385 0.953125H117.135C118.502 0.953125 119.42 0.995443 119.889 1.08008C120.364 1.1582 120.777 1.24284 121.129 1.33398C121.487 1.42513 121.786 1.53906 122.027 1.67578C122.275 1.80599 122.522 1.97201 122.77 2.17383C123.023 2.36914 123.225 2.59375 123.375 2.84766C123.72 3.42708 123.893 4.04232 123.893 4.69336C123.893 5.3444 123.84 5.87826 123.736 6.29492C123.639 6.70508 123.473 7.09245 123.238 7.45703C122.73 8.24479 121.839 8.63867 120.562 8.63867L120.484 8.86328C120.895 9.02604 121.168 9.25065 121.305 9.53711C121.878 10.7871 122.301 11.5814 122.574 11.9199C122.848 12.252 123.102 12.5189 123.336 12.7207C123.57 12.9225 123.906 13.1276 124.342 13.3359C124.778 13.5443 125.042 13.681 125.133 13.7461C125.224 13.8047 125.27 13.8535 125.27 13.8926C125.27 14.5436 125.357 15.3802 125.533 16.4023C125.709 17.4245 125.797 18.082 125.797 18.375C125.797 18.668 125.784 18.8796 125.758 19.0098C125.738 19.14 125.689 19.2669 125.611 19.3906C125.533 19.5208 125.419 19.5859 125.27 19.5859C125.12 19.5859 125.006 19.4785 124.928 19.2637C124.856 19.0488 124.82 18.7852 124.82 18.4727C124.82 18.1602 124.863 17.6003 124.947 16.793C125.032 15.9922 125.074 15.3867 125.074 14.9766C125.074 14.1628 124.811 13.7559 124.283 13.7559C124.023 13.7559 123.827 13.8014 123.697 13.8926C123.574 13.9837 123.512 14.1693 123.512 14.4492C123.512 14.7357 123.57 15.1882 123.688 15.8066C123.805 16.4251 123.863 16.8906 123.863 17.2031C123.863 17.5221 123.743 17.6816 123.502 17.6816C123.261 17.6816 123.141 17.5221 123.141 17.2031ZM116.637 4.19531L114.332 4.26367C113.388 4.26367 112.773 4.1237 112.486 3.84375L112.281 4.0293C112.542 4.2832 112.672 4.60872 112.672 5.00586V5.66016C112.672 6.05078 112.542 6.3763 112.281 6.63672L112.486 6.83203C112.766 6.54557 113.346 6.40234 114.225 6.40234L116.695 6.49023C117.353 6.49023 117.861 6.4056 118.219 6.23633C118.583 6.06055 118.766 5.74154 118.766 5.2793C118.766 4.98633 118.665 4.75846 118.463 4.5957C118.261 4.42643 118.017 4.31901 117.73 4.27344C117.444 4.22135 117.079 4.19531 116.637 4.19531ZM131.295 17.0273L131.529 14.3809C131.529 14.1725 131.412 14 131.178 13.8633C130.794 13.6484 130.325 13.541 129.771 13.541C129.029 13.541 128.518 13.6875 128.238 13.9805C128.115 14.1107 128.053 14.2995 128.053 14.5469C128.053 14.8008 128.128 15.2402 128.277 15.8652C128.427 16.4902 128.502 16.9297 128.502 17.1836C128.502 17.444 128.453 17.6491 128.355 17.7988C128.264 17.9551 128.128 18.0332 127.945 18.0332C127.763 18.0332 127.623 17.9551 127.525 17.7988C127.428 17.6491 127.379 17.444 127.379 17.1836C127.379 16.9232 127.457 16.474 127.613 15.8359C127.776 15.1979 127.857 14.7161 127.857 14.3906L127.848 2.41797C127.848 1.64974 127.613 1.00846 127.145 0.494141L127.35 0.289062C127.877 0.757812 128.518 0.992188 129.273 0.992188H132.193C132.61 0.992188 132.962 0.943359 133.248 0.845703C133.541 0.741536 133.775 0.539714 133.951 0.240234L134.273 0.396484C134.104 0.80013 134.02 1.18099 134.02 1.53906C134.02 1.83203 134.534 2.56771 135.562 3.74609C136.904 5.28255 137.766 6.31445 138.15 6.8418C138.535 7.36914 138.785 7.79557 138.902 8.12109H139.488C139.169 7.65234 139.01 6.99154 139.01 6.13867C139.01 5.74154 139.059 5.14909 139.156 4.36133C139.254 3.56706 139.303 2.97135 139.303 2.57422C139.303 1.50651 138.964 0.813151 138.287 0.494141L138.492 0.289062C139.02 0.757812 139.661 0.992188 140.416 0.992188H142.418C143.173 0.992188 143.814 0.757812 144.342 0.289062L144.537 0.494141C144.075 1.01497 143.844 1.65625 143.844 2.41797L143.824 14.3418C143.824 14.6217 143.889 15.0384 144.02 15.5918C144.15 16.1517 144.215 16.5716 144.215 16.8516C144.215 17.2682 144.055 17.4766 143.736 17.4766C143.417 17.4766 143.258 17.2682 143.258 16.8516C143.258 16.5781 143.32 16.1745 143.443 15.6406C143.567 15.1133 143.629 14.7487 143.629 14.5469C143.629 14.3516 143.564 14.2116 143.434 14.127C143.303 14.0423 143.176 14 143.053 14H139.195C138.648 14 138.375 14.498 138.375 15.4941C138.375 15.9043 138.45 16.4967 138.6 17.2715C138.756 18.0527 138.834 18.6419 138.834 19.0391C138.834 19.6055 138.622 19.8887 138.199 19.8887C137.776 19.8887 137.564 19.6022 137.564 19.0293C137.564 18.6647 137.646 18.1341 137.809 17.4375C137.978 16.7409 138.066 16.2168 138.072 15.8652L138.092 14.5664C138.111 13.9609 138.049 13.5671 137.906 13.3848L133.229 7.45703C133.105 7.29427 132.968 6.95573 132.818 6.44141L132.223 6.46094C132.561 6.8125 132.73 7.20312 132.73 7.63281V13.209L132.916 18.1504C132.916 18.2546 132.883 18.3424 132.818 18.4141C132.76 18.4922 132.675 18.5312 132.564 18.5312C132.46 18.5312 132.372 18.4857 132.301 18.3945C132.229 18.3099 132.193 18.2122 132.193 18.1016L132.311 14.3516C132.311 14.2734 132.281 14.2018 132.223 14.1367C132.164 14.0716 132.096 14.0391 132.018 14.0391C131.848 14.0391 131.764 14.1693 131.764 14.4297C131.764 14.6901 131.806 15.1165 131.891 15.709C131.982 16.3014 132.027 16.7083 132.027 16.9297C132.027 17.4245 131.904 17.6719 131.656 17.6719C131.415 17.6719 131.295 17.457 131.295 17.0273ZM152.721 12.3789L152.564 11.168V11.0605C152.701 10.8197 152.887 10.6992 153.121 10.6992L161.09 10.709C161.487 10.709 161.809 10.582 162.057 10.3281L162.252 10.5234C161.965 10.8099 161.822 11.3568 161.822 12.1641C161.822 12.1641 161.822 12.3529 161.822 12.7305C161.822 13.388 161.965 13.8665 162.252 14.166L162.057 14.3613C161.803 14.1074 161.48 13.9805 161.09 13.9805H149.537C148.958 13.9805 148.531 14.0911 148.258 14.3125C147.945 14.5729 147.789 15.3086 147.789 16.5195C147.789 17.0078 147.864 17.7272 148.014 18.6777C148.163 19.6348 148.238 20.3542 148.238 20.8359C148.238 21.5326 147.991 21.8809 147.496 21.8809C146.962 21.8809 146.695 21.5228 146.695 20.8066C146.695 20.3184 146.803 19.5957 147.018 18.6387C147.232 17.6816 147.34 16.9557 147.34 16.4609L147.291 13.1895V1.80273C147.291 1.39909 147.167 1.07682 146.92 0.835938L147.115 0.630859C147.382 0.884766 147.708 1.01172 148.092 1.01172H160.631C161.028 1.01172 161.354 0.884766 161.607 0.630859L161.803 0.835938C161.516 1.1224 161.373 1.66276 161.373 2.45703V3.00391C161.373 3.70052 161.516 4.1888 161.803 4.46875L161.607 4.6543C161.282 4.32227 160.517 4.15625 159.312 4.15625L154.459 4.38086C153.261 4.38086 152.499 4.21484 152.174 3.88281L151.969 4.07812C152.223 4.32552 152.35 4.6543 152.35 5.06445C152.35 5.4681 152.223 5.79362 151.969 6.04102L152.174 6.22656C152.486 5.90104 153.144 5.73828 154.146 5.73828L158.238 5.96289C159.247 5.96289 159.915 5.80013 160.24 5.47461L160.445 5.66992C160.159 5.95638 160.016 6.50651 160.016 7.32031V7.86719C160.016 8.53776 160.159 9.02279 160.445 9.32227L160.24 9.52734C159.928 9.20182 159.267 9.03906 158.258 9.03906L154.166 9.25391C153.163 9.25391 152.499 9.09115 152.174 8.76562L151.979 8.96094C152.174 9.15625 152.288 9.39062 152.32 9.66406C152.353 9.93099 152.372 10.123 152.379 10.2402C152.385 10.3509 152.385 10.5267 152.379 10.7676C152.372 11.002 152.369 11.1419 152.369 11.1875L152.203 12.3594C152.203 12.5938 152.288 12.7109 152.457 12.7109C152.633 12.7109 152.721 12.6003 152.721 12.3789ZM173.033 15.582L173.102 14.6445C173.102 14.4818 173.023 14.3548 172.867 14.2637C172.711 14.179 172.542 14.1367 172.359 14.1367C172.177 14.1367 172.014 14.1855 171.871 14.2832C171.728 14.3809 171.656 14.5208 171.656 14.7031V16.9492C171.656 17.2747 171.725 17.7533 171.861 18.3848C171.998 19.0163 172.066 19.4655 172.066 19.7324C172.066 20.0059 172.008 20.2305 171.891 20.4062C171.773 20.582 171.611 20.6699 171.402 20.6699C171.201 20.6699 171.048 20.5788 170.943 20.3965C170.839 20.2142 170.787 19.9766 170.787 19.6836C170.787 19.3906 170.862 18.8828 171.012 18.1602C171.161 17.4375 171.236 16.8776 171.236 16.4805C171.236 14.8724 170.937 14.0684 170.338 14.0684C169.531 14.0684 169.127 14.0358 169.127 13.9707V13.9902C169.127 14.4395 169.225 15.097 169.42 15.9629C169.622 16.8353 169.723 17.4603 169.723 17.8379C169.723 18.2155 169.654 18.5247 169.518 18.7656C169.381 19.013 169.169 19.1367 168.883 19.1367C168.603 19.1367 168.382 19.0195 168.219 18.7852C168.062 18.5508 167.984 18.2448 167.984 17.8672C167.984 17.4961 168.079 16.8548 168.268 15.9434C168.456 15.0384 168.551 14.3516 168.551 13.8828C167.008 13.3945 165.846 12.597 165.064 11.4902C164.29 10.3835 163.902 9.01628 163.902 7.38867C163.902 4.01628 165.602 1.88737 169 1.00195C170.1 0.715495 171.236 0.572266 172.408 0.572266C173.587 0.572266 174.586 0.63737 175.406 0.767578C176.233 0.897786 177.031 1.12891 177.799 1.46094C178.574 1.78646 179.231 2.20312 179.771 2.71094C180.318 3.21224 180.755 3.86328 181.08 4.66406C181.406 5.45833 181.568 6.36654 181.568 7.38867C181.568 9.47201 180.982 11.0866 179.811 12.2324C178.639 13.3717 176.992 14.0716 174.869 14.332C174.843 14.3776 174.83 14.4492 174.83 14.5469L174.879 15.084C174.879 15.416 174.788 15.582 174.605 15.582C174.423 15.582 174.332 15.4225 174.332 15.1035L174.361 14.5566C174.361 14.3613 174.221 14.2637 173.941 14.2637C173.915 14.3223 173.902 14.4329 173.902 14.5957L173.951 15.543C173.951 15.7383 173.915 15.9271 173.844 16.1094C173.772 16.2917 173.652 16.3828 173.482 16.3828C173.183 16.3828 173.033 16.1159 173.033 15.582ZM169.342 7.39844C169.342 9.78125 170.475 10.9727 172.74 10.9727C175.006 10.9727 176.139 9.78125 176.139 7.39844C176.139 6.30469 175.846 5.4681 175.26 4.88867C174.674 4.30924 173.834 4.01953 172.74 4.01953C171.646 4.01953 170.807 4.30924 170.221 4.88867C169.635 5.4681 169.342 6.30469 169.342 7.39844Z" fill="#602222"/>
</svg>
